<mxfile host="Electron" agent="Mozilla/5.0 (Windows NT 10.0; Win64; x64) AppleWebKit/537.36 (KHTML, like Gecko) draw.io/26.0.4 Chrome/128.0.6613.186 Electron/32.2.5 Safari/537.36" version="26.0.4">
  <diagram name="Page-1" id="CQLIqyrTlx0IBGkEdjod">
    <mxGraphModel dx="1195" dy="737" grid="1" gridSize="10" guides="1" tooltips="1" connect="1" arrows="1" fold="1" page="1" pageScale="1" pageWidth="850" pageHeight="1100" math="0" shadow="0">
      <root>
        <mxCell id="0" />
        <mxCell id="1" parent="0" />
        <mxCell id="s9JxQc8q4ebZmO1CuSjh-1" value="Dashboard" style="ellipse;whiteSpace=wrap;html=1;" vertex="1" parent="1">
          <mxGeometry x="755" y="150" width="120" height="80" as="geometry" />
        </mxCell>
        <mxCell id="s9JxQc8q4ebZmO1CuSjh-2" value="Data Kriteria" style="ellipse;whiteSpace=wrap;html=1;" vertex="1" parent="1">
          <mxGeometry x="755" y="270" width="120" height="80" as="geometry" />
        </mxCell>
        <mxCell id="s9JxQc8q4ebZmO1CuSjh-3" value="Data Karyawan" style="ellipse;whiteSpace=wrap;html=1;" vertex="1" parent="1">
          <mxGeometry x="755" y="390" width="120" height="80" as="geometry" />
        </mxCell>
        <mxCell id="s9JxQc8q4ebZmO1CuSjh-4" value="Input Penilaian" style="ellipse;whiteSpace=wrap;html=1;" vertex="1" parent="1">
          <mxGeometry x="755" y="510" width="120" height="80" as="geometry" />
        </mxCell>
        <mxCell id="s9JxQc8q4ebZmO1CuSjh-5" value="Hasil Penilaian" style="ellipse;whiteSpace=wrap;html=1;" vertex="1" parent="1">
          <mxGeometry x="755" y="630" width="120" height="80" as="geometry" />
        </mxCell>
        <mxCell id="s9JxQc8q4ebZmO1CuSjh-6" value="Login" style="ellipse;whiteSpace=wrap;html=1;" vertex="1" parent="1">
          <mxGeometry x="1155" y="390" width="120" height="80" as="geometry" />
        </mxCell>
        <mxCell id="s9JxQc8q4ebZmO1CuSjh-7" value="Admin" style="shape=umlActor;verticalLabelPosition=bottom;verticalAlign=top;html=1;outlineConnect=0;" vertex="1" parent="1">
          <mxGeometry x="445" y="270" width="30" height="60" as="geometry" />
        </mxCell>
        <mxCell id="s9JxQc8q4ebZmO1CuSjh-8" value="HRD" style="shape=umlActor;verticalLabelPosition=bottom;verticalAlign=top;html=1;outlineConnect=0;" vertex="1" parent="1">
          <mxGeometry x="445" y="510" width="30" height="60" as="geometry" />
        </mxCell>
        <mxCell id="s9JxQc8q4ebZmO1CuSjh-15" value="" style="endArrow=none;dashed=1;html=1;rounded=0;exitX=1;exitY=0.5;exitDx=0;exitDy=0;entryX=0;entryY=0.5;entryDx=0;entryDy=0;" edge="1" parent="1" source="s9JxQc8q4ebZmO1CuSjh-1" target="s9JxQc8q4ebZmO1CuSjh-6">
          <mxGeometry width="50" height="50" relative="1" as="geometry">
            <mxPoint x="1055" y="360" as="sourcePoint" />
            <mxPoint x="1265" y="430" as="targetPoint" />
          </mxGeometry>
        </mxCell>
        <mxCell id="s9JxQc8q4ebZmO1CuSjh-17" value="" style="endArrow=none;dashed=1;html=1;rounded=0;exitX=1;exitY=0.5;exitDx=0;exitDy=0;entryX=0;entryY=0.5;entryDx=0;entryDy=0;" edge="1" parent="1" source="s9JxQc8q4ebZmO1CuSjh-2" target="s9JxQc8q4ebZmO1CuSjh-6">
          <mxGeometry width="50" height="50" relative="1" as="geometry">
            <mxPoint x="1055" y="360" as="sourcePoint" />
            <mxPoint x="1105" y="310" as="targetPoint" />
          </mxGeometry>
        </mxCell>
        <mxCell id="s9JxQc8q4ebZmO1CuSjh-19" value="" style="endArrow=none;dashed=1;html=1;rounded=0;exitX=1;exitY=0.5;exitDx=0;exitDy=0;entryX=0;entryY=0.5;entryDx=0;entryDy=0;" edge="1" parent="1" source="s9JxQc8q4ebZmO1CuSjh-3" target="s9JxQc8q4ebZmO1CuSjh-6">
          <mxGeometry width="50" height="50" relative="1" as="geometry">
            <mxPoint x="865" y="360" as="sourcePoint" />
            <mxPoint x="915" y="310" as="targetPoint" />
          </mxGeometry>
        </mxCell>
        <mxCell id="s9JxQc8q4ebZmO1CuSjh-20" value="" style="endArrow=none;dashed=1;html=1;rounded=0;exitX=1;exitY=0.5;exitDx=0;exitDy=0;entryX=0;entryY=0.5;entryDx=0;entryDy=0;" edge="1" parent="1" source="s9JxQc8q4ebZmO1CuSjh-4" target="s9JxQc8q4ebZmO1CuSjh-6">
          <mxGeometry width="50" height="50" relative="1" as="geometry">
            <mxPoint x="995" y="560" as="sourcePoint" />
            <mxPoint x="1045" y="510" as="targetPoint" />
          </mxGeometry>
        </mxCell>
        <mxCell id="s9JxQc8q4ebZmO1CuSjh-21" value="" style="endArrow=none;dashed=1;html=1;rounded=0;exitX=1;exitY=0.5;exitDx=0;exitDy=0;entryX=0;entryY=0.5;entryDx=0;entryDy=0;" edge="1" parent="1" source="s9JxQc8q4ebZmO1CuSjh-5" target="s9JxQc8q4ebZmO1CuSjh-6">
          <mxGeometry width="50" height="50" relative="1" as="geometry">
            <mxPoint x="995" y="560" as="sourcePoint" />
            <mxPoint x="1045" y="510" as="targetPoint" />
          </mxGeometry>
        </mxCell>
        <mxCell id="s9JxQc8q4ebZmO1CuSjh-33" value="" style="endArrow=classic;html=1;rounded=0;exitX=1;exitY=0.3333333333333333;exitDx=0;exitDy=0;exitPerimeter=0;" edge="1" parent="1" source="s9JxQc8q4ebZmO1CuSjh-7">
          <mxGeometry width="50" height="50" relative="1" as="geometry">
            <mxPoint x="950" y="410" as="sourcePoint" />
            <mxPoint x="750" y="190" as="targetPoint" />
          </mxGeometry>
        </mxCell>
        <mxCell id="s9JxQc8q4ebZmO1CuSjh-34" value="" style="endArrow=classic;html=1;rounded=0;exitX=1;exitY=0.3333333333333333;exitDx=0;exitDy=0;exitPerimeter=0;" edge="1" parent="1" source="s9JxQc8q4ebZmO1CuSjh-7">
          <mxGeometry width="50" height="50" relative="1" as="geometry">
            <mxPoint x="485" y="300" as="sourcePoint" />
            <mxPoint x="750" y="300" as="targetPoint" />
          </mxGeometry>
        </mxCell>
        <mxCell id="s9JxQc8q4ebZmO1CuSjh-35" value="" style="endArrow=classic;html=1;rounded=0;exitX=1;exitY=0.3333333333333333;exitDx=0;exitDy=0;exitPerimeter=0;" edge="1" parent="1" source="s9JxQc8q4ebZmO1CuSjh-7">
          <mxGeometry width="50" height="50" relative="1" as="geometry">
            <mxPoint x="495" y="310" as="sourcePoint" />
            <mxPoint x="750" y="420" as="targetPoint" />
          </mxGeometry>
        </mxCell>
        <mxCell id="s9JxQc8q4ebZmO1CuSjh-36" value="" style="endArrow=classic;html=1;rounded=0;exitX=1;exitY=0.3333333333333333;exitDx=0;exitDy=0;exitPerimeter=0;" edge="1" parent="1" source="s9JxQc8q4ebZmO1CuSjh-7">
          <mxGeometry width="50" height="50" relative="1" as="geometry">
            <mxPoint x="505" y="320" as="sourcePoint" />
            <mxPoint x="750" y="540" as="targetPoint" />
          </mxGeometry>
        </mxCell>
        <mxCell id="s9JxQc8q4ebZmO1CuSjh-37" value="" style="endArrow=classic;html=1;rounded=0;exitX=1;exitY=0.3333333333333333;exitDx=0;exitDy=0;exitPerimeter=0;" edge="1" parent="1" source="s9JxQc8q4ebZmO1CuSjh-7">
          <mxGeometry width="50" height="50" relative="1" as="geometry">
            <mxPoint x="515" y="330" as="sourcePoint" />
            <mxPoint x="750" y="650" as="targetPoint" />
          </mxGeometry>
        </mxCell>
        <mxCell id="s9JxQc8q4ebZmO1CuSjh-38" value="" style="endArrow=classic;html=1;rounded=0;exitX=1;exitY=0.3333333333333333;exitDx=0;exitDy=0;exitPerimeter=0;" edge="1" parent="1" source="s9JxQc8q4ebZmO1CuSjh-8">
          <mxGeometry width="50" height="50" relative="1" as="geometry">
            <mxPoint x="485" y="300" as="sourcePoint" />
            <mxPoint x="750" y="670" as="targetPoint" />
          </mxGeometry>
        </mxCell>
        <mxCell id="s9JxQc8q4ebZmO1CuSjh-39" value="" style="endArrow=classic;html=1;rounded=0;exitX=1;exitY=0.3333333333333333;exitDx=0;exitDy=0;exitPerimeter=0;" edge="1" parent="1" source="s9JxQc8q4ebZmO1CuSjh-8">
          <mxGeometry width="50" height="50" relative="1" as="geometry">
            <mxPoint x="485" y="540" as="sourcePoint" />
            <mxPoint x="750" y="550" as="targetPoint" />
          </mxGeometry>
        </mxCell>
        <mxCell id="s9JxQc8q4ebZmO1CuSjh-40" value="" style="endArrow=classic;html=1;rounded=0;exitX=1;exitY=0.3333333333333333;exitDx=0;exitDy=0;exitPerimeter=0;" edge="1" parent="1" source="s9JxQc8q4ebZmO1CuSjh-8">
          <mxGeometry width="50" height="50" relative="1" as="geometry">
            <mxPoint x="495" y="550" as="sourcePoint" />
            <mxPoint x="750" y="440" as="targetPoint" />
          </mxGeometry>
        </mxCell>
        <mxCell id="s9JxQc8q4ebZmO1CuSjh-41" value="" style="endArrow=classic;html=1;rounded=0;exitX=1;exitY=0.3333333333333333;exitDx=0;exitDy=0;exitPerimeter=0;" edge="1" parent="1" source="s9JxQc8q4ebZmO1CuSjh-8">
          <mxGeometry width="50" height="50" relative="1" as="geometry">
            <mxPoint x="505" y="560" as="sourcePoint" />
            <mxPoint x="750" y="320" as="targetPoint" />
          </mxGeometry>
        </mxCell>
        <mxCell id="s9JxQc8q4ebZmO1CuSjh-42" value="" style="endArrow=classic;html=1;rounded=0;exitX=1;exitY=0.3333333333333333;exitDx=0;exitDy=0;exitPerimeter=0;" edge="1" parent="1" source="s9JxQc8q4ebZmO1CuSjh-8">
          <mxGeometry width="50" height="50" relative="1" as="geometry">
            <mxPoint x="515" y="570" as="sourcePoint" />
            <mxPoint x="750" y="210" as="targetPoint" />
          </mxGeometry>
        </mxCell>
      </root>
    </mxGraphModel>
  </diagram>
</mxfile>
